G04 #@! TF.GenerationSoftware,KiCad,Pcbnew,(5.1.0)-1*
G04 #@! TF.CreationDate,2020-01-25T11:11:20-05:00*
G04 #@! TF.ProjectId,XLR8_V2,584c5238-5f56-4322-9e6b-696361645f70,rev?*
G04 #@! TF.SameCoordinates,Original*
G04 #@! TF.FileFunction,Profile,NP*
%FSLAX46Y46*%
G04 Gerber Fmt 4.6, Leading zero omitted, Abs format (unit mm)*
G04 Created by KiCad (PCBNEW (5.1.0)-1) date 2020-01-25 11:11:20*
%MOMM*%
%LPD*%
G04 APERTURE LIST*
%ADD10C,0.150000*%
%ADD11C,0.120000*%
G04 APERTURE END LIST*
D10*
X121000000Y-55700000D02*
X145000000Y-55700000D01*
X69000000Y-55700000D02*
X93000000Y-55700000D01*
X144000000Y-35700000D02*
X70000000Y-35700000D01*
X163500000Y-69200000D02*
X164000000Y-68700000D01*
X152500000Y-69200000D02*
X163500000Y-69200000D01*
X152000000Y-68700000D02*
X152500000Y-69200000D01*
X61500000Y-69200000D02*
X62000000Y-68700000D01*
X50500000Y-69200000D02*
X50000000Y-68700000D01*
X61500000Y-69200000D02*
X50500000Y-69200000D01*
X103000000Y-119700000D02*
X107000000Y-113700000D01*
X111000000Y-119700000D02*
X103000000Y-119700000D01*
X107000000Y-113700000D02*
X111000000Y-119700000D01*
X103000000Y-111700000D02*
X107000000Y-105700000D01*
X111000000Y-111700000D02*
X103000000Y-111700000D01*
X107000000Y-105700000D02*
X111000000Y-111700000D01*
X111000000Y-97700000D02*
X107000000Y-103700000D01*
X103000000Y-97700000D02*
X111000000Y-97700000D01*
X107000000Y-103700000D02*
X103000000Y-97700000D01*
X111000000Y-60700000D02*
X103000000Y-60700000D01*
X103000000Y-72700000D02*
X111000000Y-72700000D01*
X107000000Y-67700000D02*
X103000000Y-72700000D01*
X111000000Y-72700000D02*
X107000000Y-67700000D01*
X103000000Y-62700000D02*
X103000000Y-70700000D01*
X106000000Y-66700000D02*
X103000000Y-62700000D01*
X103000000Y-70700000D02*
X106000000Y-66700000D01*
X103000000Y-60700000D02*
X107000000Y-65700000D01*
X111000000Y-62700000D02*
X111000000Y-70700000D01*
X108000000Y-66700000D02*
X111000000Y-62700000D01*
X111000000Y-70700000D02*
X108000000Y-66700000D01*
X107000000Y-65700000D02*
X111000000Y-60700000D01*
X111000000Y-74700000D02*
X103000000Y-74700000D01*
X107000000Y-79700000D02*
X111000000Y-74700000D01*
X103000000Y-74700000D02*
X107000000Y-79700000D01*
X111000000Y-76700000D02*
X111000000Y-84700000D01*
X108000000Y-80700000D02*
X111000000Y-76700000D01*
X111000000Y-84700000D02*
X108000000Y-80700000D01*
X103000000Y-76700000D02*
X103000000Y-84700000D01*
X106000000Y-80700000D02*
X103000000Y-76700000D01*
X103000000Y-84700000D02*
X106000000Y-80700000D01*
X107000000Y-81700000D02*
X103000000Y-86700000D01*
X111000000Y-86700000D02*
X107000000Y-81700000D01*
X103000000Y-86700000D02*
X111000000Y-86700000D01*
X111000000Y-90700000D02*
X107000000Y-96700000D01*
X103000000Y-90700000D02*
X111000000Y-90700000D01*
X107000000Y-96700000D02*
X103000000Y-90700000D01*
X167000000Y-55700000D02*
X144000000Y-35700000D01*
X149000000Y-59700000D02*
X149000000Y-65700000D01*
X165000000Y-60700000D02*
G75*
G03X165000000Y-60700000I-7000000J0D01*
G01*
X167000000Y-65700000D02*
X167000000Y-55700000D01*
X164000000Y-68700000D02*
X167000000Y-65700000D01*
X145000000Y-55700000D02*
X149000000Y-59700000D01*
X149000000Y-65700000D02*
X152000000Y-68700000D01*
X47000000Y-55700000D02*
X70000000Y-35700000D01*
X47000000Y-65700000D02*
X47000000Y-55700000D01*
X50000000Y-68700000D02*
X47000000Y-65700000D01*
X63000000Y-60700000D02*
G75*
G03X63000000Y-60700000I-7000000J0D01*
G01*
X65000000Y-65700000D02*
X62000000Y-68700000D01*
X65000000Y-59700000D02*
X65000000Y-65700000D01*
X69000000Y-55700000D02*
X65000000Y-59700000D01*
X119000000Y-57700000D02*
X121000000Y-55700000D01*
X95000000Y-57700000D02*
X93000000Y-55700000D01*
D11*
X74370000Y-50120000D02*
G75*
G03X74370000Y-50120000I-1220000J0D01*
G01*
X143890000Y-50120000D02*
G75*
G03X143890000Y-50120000I-1220000J0D01*
G01*
D10*
X95000000Y-96700000D02*
X95000000Y-57700000D01*
X119000000Y-96700000D02*
X119000000Y-57700000D01*
X119000000Y-96700000D02*
X123000000Y-110700000D01*
X91000000Y-110700000D02*
X95000000Y-96700000D01*
X123000000Y-143700000D02*
X123000000Y-110700000D01*
X91000000Y-143700000D02*
X91000000Y-110700000D01*
X123000000Y-143700000D02*
X141000000Y-150700000D01*
X73000000Y-150700000D02*
X91000000Y-143700000D01*
X141000000Y-150700000D02*
X144000000Y-157700000D01*
X70000000Y-157700000D02*
X73000000Y-150700000D01*
X65000000Y-157700000D02*
X70000000Y-157700000D01*
X57000000Y-165700000D02*
X65000000Y-157700000D01*
X149000000Y-157700000D02*
X144000000Y-157700000D01*
X157000000Y-165700000D02*
X149000000Y-157700000D01*
X157000000Y-175700000D02*
X157000000Y-165700000D01*
X57000000Y-175700000D02*
X57000000Y-165700000D01*
X55000000Y-177700000D02*
X57000000Y-175700000D01*
X55000000Y-181700000D02*
X55000000Y-177700000D01*
X55000000Y-181700000D02*
X49000000Y-187700000D01*
X159000000Y-177700000D02*
X157000000Y-175700000D01*
X159000000Y-181700000D02*
X159000000Y-177700000D01*
X165000000Y-187700000D02*
X159000000Y-181700000D01*
X144000000Y-223700000D02*
X150000000Y-223700000D01*
X151000000Y-222700000D02*
X158000000Y-222700000D01*
X159000000Y-221700000D02*
X165000000Y-221700000D01*
X158000000Y-222700000D02*
X159000000Y-221700000D01*
X150000000Y-223700000D02*
X151000000Y-222700000D01*
X64000000Y-223700000D02*
X70000000Y-223700000D01*
X63000000Y-222700000D02*
X64000000Y-223700000D01*
X56000000Y-222700000D02*
X63000000Y-222700000D01*
X55000000Y-221700000D02*
X56000000Y-222700000D01*
X49000000Y-221700000D02*
X55000000Y-221700000D01*
X164100000Y-213200000D02*
G75*
G03X164100000Y-213200000I-1100000J0D01*
G01*
X164100000Y-195200000D02*
G75*
G03X164100000Y-195200000I-1100000J0D01*
G01*
X52100000Y-213200000D02*
G75*
G03X52100000Y-213200000I-1100000J0D01*
G01*
X52100000Y-195200000D02*
G75*
G03X52100000Y-195200000I-1100000J0D01*
G01*
X167000000Y-189700000D02*
X165000000Y-187700000D01*
X167000000Y-219700000D02*
X167000000Y-189700000D01*
X47000000Y-189700000D02*
X49000000Y-187700000D01*
X47000000Y-219700000D02*
X47000000Y-189700000D01*
X122000000Y-201700000D02*
G75*
G03X122000000Y-201700000I-15000000J0D01*
G01*
X165000000Y-221700000D02*
X167000000Y-219700000D01*
X49000000Y-221700000D02*
X47000000Y-219700000D01*
X82000000Y-235700000D02*
X70000000Y-223700000D01*
X132000000Y-235700000D02*
X144000000Y-223700000D01*
X132000000Y-235700000D02*
X82000000Y-235700000D01*
M02*
