M48
; DRILL file {KiCad (5.1.0)-1} date 25/01/2020 11:11:26 AM
; FORMAT={-:-/ absolute / inch / decimal}
; #@! TF.CreationDate,2020-01-25T11:11:26-05:00
; #@! TF.GenerationSoftware,Kicad,Pcbnew,(5.1.0)-1
FMAT,2
INCH
T1C0.0120
T2C0.0157
T3C0.0236
T4C0.0315
T5C0.0354
T6C0.0394
T7C0.0433
T8C0.0591
T9C0.0598
T10C0.1063
T11C0.0701
%
G90
G05
T1
X3.7598Y-3.9764
X3.7894Y-3.9272
X3.7992Y-3.8287
X3.7992Y-3.878
X3.8898Y-6.315
X3.9291Y-6.0945
X3.9606Y-6.315
X3.9764Y-6.063
X4.0315Y-6.0157
X4.0472Y-6.315
X4.0787Y-5.9606
X4.0945Y-6.315
X4.1181Y-5.937
X4.1496Y-5.8976
X4.1732Y-6.315
X4.189Y-5.8583
X4.2126Y-6.315
X4.2283Y-5.8189
X4.2283Y-6.9528
X4.2677Y-6.3071
X4.4094Y-5.0098
X4.4291Y-5.1083
X4.4783Y-4.9508
X4.4961Y-6.315
X4.5276Y-5.0787
X4.5571Y-4.8819
X4.5768Y-5.2165
X4.6161Y-4.5177
X4.6161Y-4.6358
X4.6161Y-4.8228
X4.6161Y-4.9705
X4.6654Y-4.5866
X4.6654Y-4.7343
X4.6654Y-4.9114
X4.6654Y-5.0394
X4.6654Y-5.1181
X4.7638Y-6.2992
X4.8425Y-5.8189
T2
X3.6535Y-6.2913
T3
X4.5591Y-7.3071
T4
X5.1181Y-7.3614
X5.1181Y-7.6614
X2.7756Y-6.8189
X2.7756Y-7.1189
X3.2591Y-6.2677
X3.5591Y-6.2677
X3.4449Y-6.4748
X3.4449Y-7.0748
X3.5449Y-6.4748
X3.5449Y-7.0748
X3.6449Y-6.4748
X3.6449Y-7.0748
X3.7449Y-6.4748
X3.7449Y-7.0748
X3.8449Y-6.4748
X3.8449Y-7.0748
X3.9449Y-6.4748
X3.9449Y-7.0748
X4.0449Y-6.4748
X4.0449Y-7.0748
X4.1449Y-6.4748
X4.1449Y-7.0748
X4.2449Y-6.4748
X4.2449Y-7.0748
X4.3449Y-6.4748
X4.3449Y-7.0748
X4.4449Y-6.4748
X4.4449Y-7.0748
X4.5449Y-6.4748
X4.5449Y-7.0748
X4.6449Y-6.4748
X4.6449Y-7.0748
X4.7449Y-6.4748
X4.7449Y-7.0748
X4.8449Y-6.4748
X4.8449Y-7.0748
T5
X3.2701Y-5.9921
X3.3701Y-5.9921
X5.0575Y-5.9921
X5.1575Y-5.9921
T6
X3.0315Y-6.5236
X3.0315Y-6.6236
X3.0315Y-6.7236
X3.0315Y-6.8236
X3.0315Y-6.9236
X3.0315Y-7.0236
X2.4803Y-6.563
X2.536Y-6.5073
X2.5917Y-6.4516
X5.8335Y-6.4516
X5.8892Y-6.5073
X5.9449Y-6.563
X5.1181Y-8.3331
X5.1181Y-8.4331
X5.2603Y-6.2918
X5.331Y-6.3625
X5.4017Y-6.4332
X5.4724Y-6.5039
X3.8976Y-1.9213
X3.9976Y-1.9213
X4.0976Y-1.9213
X4.1976Y-1.9213
X4.2976Y-1.9213
X4.3976Y-1.9213
X4.4976Y-1.9213
X4.5976Y-1.9213
X4.6976Y-1.9213
X4.7976Y-1.9213
X4.8976Y-1.9213
X5.3193Y-6.9173
X5.3193Y-7.5079
X5.4193Y-6.9173
X5.4193Y-7.5079
X5.5193Y-6.9173
X5.5193Y-7.5079
X5.6193Y-6.9173
X5.6193Y-7.5079
X5.7193Y-6.9173
X5.7193Y-7.5079
X5.8193Y-6.9173
X5.8193Y-7.5079
X5.9193Y-6.9173
X5.9193Y-7.5079
X6.0193Y-6.9173
X6.0193Y-7.5079
X3.3071Y-8.2165
X3.3071Y-8.3165
X3.3071Y-8.4165
X3.7795Y-4.2323
X3.7795Y-6.2402
X4.6299Y-4.2323
X4.6339Y-6.2402
T7
X2.3819Y-7.1732
X2.3819Y-7.4291
X2.5591Y-7.1732
X2.5591Y-7.4291
T8
X2.4219Y-6.6215
X2.6501Y-6.3932
X5.7751Y-6.3932
X6.0033Y-6.6215
T9
X5.5906Y-8.6496
X5.7906Y-8.6496
X2.6378Y-8.6496
X2.8378Y-8.6496
T10
X3.2087Y-7.4488
X3.2087Y-7.6457
T11
X3.3449Y-6.4748
X3.3449Y-7.0748
X4.9449Y-6.4748
X4.9449Y-7.0748
T0
M30
