G04 #@! TF.GenerationSoftware,KiCad,Pcbnew,(5.1.0)-1*
G04 #@! TF.CreationDate,2020-01-25T11:11:20-05:00*
G04 #@! TF.ProjectId,XLR8_V2,584c5238-5f56-4322-9e6b-696361645f70,rev?*
G04 #@! TF.SameCoordinates,Original*
G04 #@! TF.FileFunction,Legend,Top*
G04 #@! TF.FilePolarity,Positive*
%FSLAX46Y46*%
G04 Gerber Fmt 4.6, Leading zero omitted, Abs format (unit mm)*
G04 Created by KiCad (PCBNEW (5.1.0)-1) date 2020-01-25 11:11:20*
%MOMM*%
%LPD*%
G04 APERTURE LIST*
%ADD10C,0.120000*%
%ADD11C,0.200000*%
%ADD12C,0.150000*%
G04 APERTURE END LIST*
D10*
X125500000Y-201700000D02*
G75*
G03X125500000Y-201700000I-18500000J0D01*
G01*
X70000000Y-52700000D02*
X145000000Y-52700000D01*
X70000000Y-39700000D02*
X70000000Y-52700000D01*
X145000000Y-39700000D02*
X70000000Y-39700000D01*
X145000000Y-52700000D02*
X145000000Y-39700000D01*
X82750000Y-221450000D02*
X82750000Y-234450000D01*
X130750000Y-221450000D02*
X82750000Y-221450000D01*
X130750000Y-234450000D02*
X130750000Y-221450000D01*
X82750000Y-234450000D02*
X130750000Y-234450000D01*
D11*
X159000000Y-211700000D02*
X155500000Y-211700000D01*
X143000000Y-210200000D02*
X155500000Y-210200000D01*
X155500000Y-211700000D02*
X155500000Y-196700000D01*
X167000000Y-195200000D02*
G75*
G03X159000000Y-195200000I-4000000J0D01*
G01*
X159000000Y-213200000D02*
G75*
G03X167000000Y-213200000I4000000J0D01*
G01*
X143000000Y-198200000D02*
X143000000Y-210200000D01*
X155500000Y-198200000D02*
X143000000Y-198200000D01*
X159000000Y-196700000D02*
X159000000Y-195200000D01*
X155500000Y-196700000D02*
X159000000Y-196700000D01*
X159000000Y-213200000D02*
X159000000Y-211700000D01*
X55000000Y-195200000D02*
X55000000Y-196700000D01*
X71000000Y-198200000D02*
X58500000Y-198200000D01*
X55000000Y-195200000D02*
G75*
G03X47000000Y-195200000I-4000000J0D01*
G01*
X55000000Y-196700000D02*
X58500000Y-196700000D01*
X58500000Y-196700000D02*
X58500000Y-211700000D01*
X58500000Y-211700000D02*
X55000000Y-211700000D01*
X55000000Y-211700000D02*
X55000000Y-213200000D01*
X58500000Y-210200000D02*
X71000000Y-210200000D01*
X71000000Y-210200000D02*
X71000000Y-198200000D01*
X47000000Y-213200000D02*
G75*
G03X55000000Y-213200000I4000000J0D01*
G01*
X95600000Y-105400000D02*
X93800000Y-105400000D01*
X95600000Y-160600000D02*
X93800000Y-160600000D01*
X119600000Y-105400000D02*
X107600000Y-105400000D01*
X119600000Y-160600000D02*
X119600000Y-105400000D01*
X95500000Y-160600000D02*
X119600000Y-160600000D01*
X93800000Y-105400000D02*
X93800000Y-160600000D01*
X107600000Y-105400000D02*
X95600000Y-105400000D01*
D10*
X83560000Y-163060000D02*
X83560000Y-181100000D01*
X127000000Y-163060000D02*
X83560000Y-163060000D01*
X127000000Y-181100000D02*
X127000000Y-163060000D01*
X124330000Y-178430000D02*
X124330000Y-181100000D01*
X88770000Y-178430000D02*
X124330000Y-178430000D01*
X88770000Y-178430000D02*
X88770000Y-181100000D01*
X124330000Y-165730000D02*
X124330000Y-163060000D01*
X86230000Y-165730000D02*
X124330000Y-165730000D01*
X86230000Y-165730000D02*
X86230000Y-163060000D01*
X83560000Y-181100000D02*
X86230000Y-181100000D01*
X88770000Y-181100000D02*
X127000000Y-181100000D01*
X86230000Y-178430000D02*
X86230000Y-181100000D01*
X88770000Y-178430000D02*
X86230000Y-178430000D01*
X97670000Y-50130000D02*
X97670000Y-48800000D01*
X99000000Y-50130000D02*
X97670000Y-50130000D01*
X100270000Y-50130000D02*
X100270000Y-47470000D01*
X100270000Y-47470000D02*
X125730000Y-47470000D01*
X100270000Y-50130000D02*
X125730000Y-50130000D01*
X125730000Y-50130000D02*
X125730000Y-47470000D01*
X82670000Y-207370000D02*
X84000000Y-207370000D01*
X82670000Y-208700000D02*
X82670000Y-207370000D01*
X82670000Y-209970000D02*
X85330000Y-209970000D01*
X85330000Y-209970000D02*
X85330000Y-215110000D01*
X82670000Y-209970000D02*
X82670000Y-215110000D01*
X82670000Y-215110000D02*
X85330000Y-215110000D01*
X77000000Y-164370000D02*
X78330000Y-164370000D01*
X78330000Y-164370000D02*
X78330000Y-165700000D01*
X78330000Y-166970000D02*
X78330000Y-179730000D01*
X75670000Y-179730000D02*
X78330000Y-179730000D01*
X75670000Y-166970000D02*
X75670000Y-179730000D01*
X75670000Y-166970000D02*
X78330000Y-166970000D01*
D11*
X155000000Y-173200000D02*
X133000000Y-173200000D01*
X155000000Y-193200000D02*
X155000000Y-173200000D01*
X133000000Y-193200000D02*
X155000000Y-193200000D01*
X133000000Y-193200000D02*
X133000000Y-173200000D01*
D10*
X139940452Y-166140452D02*
X139000000Y-167080904D01*
X139000000Y-167080904D02*
X138059548Y-166140452D01*
X137161522Y-165242426D02*
X131730942Y-159811846D01*
X133611846Y-157930942D02*
X131730942Y-159811846D01*
X139042426Y-163361522D02*
X133611846Y-157930942D01*
X139042426Y-163361522D02*
X137161522Y-165242426D01*
D12*
X149797918Y-162245227D02*
X148171573Y-160618882D01*
X154252691Y-166700000D02*
X152697056Y-165144365D01*
X151000000Y-169952691D02*
X144918882Y-163871573D01*
X61373654Y-165073655D02*
X59747309Y-166700000D01*
X65828427Y-160618882D02*
X64272792Y-162174517D01*
X69081118Y-163871573D02*
X63000000Y-169952691D01*
D10*
X63500000Y-181950000D02*
X62000000Y-181950000D01*
X59500000Y-183200000D02*
X59500000Y-187700000D01*
X62000000Y-188950000D02*
X63500000Y-188950000D01*
X66000000Y-187700000D02*
X66000000Y-183200000D01*
X131370000Y-187520000D02*
X131040000Y-187520000D01*
X131370000Y-194060000D02*
X131370000Y-187520000D01*
X131040000Y-194060000D02*
X131370000Y-194060000D01*
X128630000Y-187520000D02*
X128960000Y-187520000D01*
X128630000Y-194060000D02*
X128630000Y-187520000D01*
X128960000Y-194060000D02*
X128630000Y-194060000D01*
X83320000Y-157830000D02*
X83320000Y-158160000D01*
X89860000Y-157830000D02*
X83320000Y-157830000D01*
X89860000Y-158160000D02*
X89860000Y-157830000D01*
X83320000Y-160570000D02*
X83320000Y-160240000D01*
X89860000Y-160570000D02*
X83320000Y-160570000D01*
X89860000Y-160240000D02*
X89860000Y-160570000D01*
X69130000Y-180280000D02*
X69460000Y-180280000D01*
X69130000Y-173740000D02*
X69130000Y-180280000D01*
X69460000Y-173740000D02*
X69130000Y-173740000D01*
X71870000Y-180280000D02*
X71540000Y-180280000D01*
X71870000Y-173740000D02*
X71870000Y-180280000D01*
X71540000Y-173740000D02*
X71870000Y-173740000D01*
X131330000Y-215530000D02*
X130000000Y-215530000D01*
X131330000Y-214200000D02*
X131330000Y-215530000D01*
X131330000Y-212930000D02*
X128670000Y-212930000D01*
X128670000Y-212930000D02*
X128670000Y-210330000D01*
X131330000Y-212930000D02*
X131330000Y-210330000D01*
X131330000Y-210330000D02*
X128670000Y-210330000D01*
X80090000Y-196910000D02*
X82910000Y-196910000D01*
X82910000Y-196910000D02*
X84210000Y-195210000D01*
X80090000Y-196910000D02*
X78790000Y-195210000D01*
X84210000Y-195210000D02*
X84210000Y-186490000D01*
X78790000Y-186490000D02*
X84210000Y-186490000D01*
X78790000Y-195210000D02*
X78790000Y-186490000D01*
X139460000Y-223510000D02*
X149620000Y-223510000D01*
X139460000Y-215890000D02*
X139460000Y-223510000D01*
X149620000Y-215890000D02*
X139460000Y-215890000D01*
X149620000Y-223510000D02*
X149620000Y-215890000D01*
X149620000Y-222240000D02*
X139460000Y-222240000D01*
X64460000Y-223510000D02*
X74620000Y-223510000D01*
X64460000Y-215890000D02*
X64460000Y-223510000D01*
X74620000Y-215890000D02*
X64460000Y-215890000D01*
X74620000Y-223510000D02*
X74620000Y-215890000D01*
X74620000Y-222240000D02*
X64460000Y-222240000D01*
X131290000Y-151120000D02*
X131290000Y-150964000D01*
X131290000Y-153436000D02*
X131290000Y-153280000D01*
X128688870Y-151120163D02*
G75*
G02X130770961Y-151120000I1041130J-1079837D01*
G01*
X128688870Y-153279837D02*
G75*
G03X130770961Y-153280000I1041130J1079837D01*
G01*
X128057665Y-151121392D02*
G75*
G02X131290000Y-150964484I1672335J-1078608D01*
G01*
X128057665Y-153278608D02*
G75*
G03X131290000Y-153435516I1672335J1078608D01*
G01*
X85890000Y-151120000D02*
X85890000Y-150964000D01*
X85890000Y-153436000D02*
X85890000Y-153280000D01*
X83288870Y-151120163D02*
G75*
G02X85370961Y-151120000I1041130J-1079837D01*
G01*
X83288870Y-153279837D02*
G75*
G03X85370961Y-153280000I1041130J1079837D01*
G01*
X82657665Y-151121392D02*
G75*
G02X85890000Y-150964484I1672335J-1078608D01*
G01*
X82657665Y-153278608D02*
G75*
G03X85890000Y-153435516I1672335J1078608D01*
G01*
D12*
X107552380Y-133361904D02*
X108361904Y-133361904D01*
X108457142Y-133314285D01*
X108504761Y-133266666D01*
X108552380Y-133171428D01*
X108552380Y-132980952D01*
X108504761Y-132885714D01*
X108457142Y-132838095D01*
X108361904Y-132790476D01*
X107552380Y-132790476D01*
X107552380Y-131838095D02*
X107552380Y-132314285D01*
X108028571Y-132361904D01*
X107980952Y-132314285D01*
X107933333Y-132219047D01*
X107933333Y-131980952D01*
X107980952Y-131885714D01*
X108028571Y-131838095D01*
X108123809Y-131790476D01*
X108361904Y-131790476D01*
X108457142Y-131838095D01*
X108504761Y-131885714D01*
X108552380Y-131980952D01*
X108552380Y-132219047D01*
X108504761Y-132314285D01*
X108457142Y-132361904D01*
X82586666Y-172794285D02*
X82586666Y-172318095D01*
X82872380Y-172889523D02*
X81872380Y-172556190D01*
X82872380Y-172222857D01*
X82872380Y-171365714D02*
X82872380Y-171937142D01*
X82872380Y-171651428D02*
X81872380Y-171651428D01*
X82015238Y-171746666D01*
X82110476Y-171841904D01*
X82158095Y-171937142D01*
X96122380Y-49561904D02*
X96931904Y-49561904D01*
X97027142Y-49514285D01*
X97074761Y-49466666D01*
X97122380Y-49371428D01*
X97122380Y-49180952D01*
X97074761Y-49085714D01*
X97027142Y-49038095D01*
X96931904Y-48990476D01*
X96122380Y-48990476D01*
X96122380Y-48085714D02*
X96122380Y-48276190D01*
X96170000Y-48371428D01*
X96217619Y-48419047D01*
X96360476Y-48514285D01*
X96550952Y-48561904D01*
X96931904Y-48561904D01*
X97027142Y-48514285D01*
X97074761Y-48466666D01*
X97122380Y-48371428D01*
X97122380Y-48180952D01*
X97074761Y-48085714D01*
X97027142Y-48038095D01*
X96931904Y-47990476D01*
X96693809Y-47990476D01*
X96598571Y-48038095D01*
X96550952Y-48085714D01*
X96503333Y-48180952D01*
X96503333Y-48371428D01*
X96550952Y-48466666D01*
X96598571Y-48514285D01*
X96693809Y-48561904D01*
X83238095Y-205822380D02*
X83238095Y-206631904D01*
X83285714Y-206727142D01*
X83333333Y-206774761D01*
X83428571Y-206822380D01*
X83619047Y-206822380D01*
X83714285Y-206774761D01*
X83761904Y-206727142D01*
X83809523Y-206631904D01*
X83809523Y-205822380D01*
X84714285Y-206155714D02*
X84714285Y-206822380D01*
X84476190Y-205774761D02*
X84238095Y-206489047D01*
X84857142Y-206489047D01*
X76238095Y-162382380D02*
X76238095Y-163191904D01*
X76285714Y-163287142D01*
X76333333Y-163334761D01*
X76428571Y-163382380D01*
X76619047Y-163382380D01*
X76714285Y-163334761D01*
X76761904Y-163287142D01*
X76809523Y-163191904D01*
X76809523Y-162382380D01*
X77190476Y-162382380D02*
X77809523Y-162382380D01*
X77476190Y-162763333D01*
X77619047Y-162763333D01*
X77714285Y-162810952D01*
X77761904Y-162858571D01*
X77809523Y-162953809D01*
X77809523Y-163191904D01*
X77761904Y-163287142D01*
X77714285Y-163334761D01*
X77619047Y-163382380D01*
X77333333Y-163382380D01*
X77238095Y-163334761D01*
X77190476Y-163287142D01*
X131452380Y-183961904D02*
X132261904Y-183961904D01*
X132357142Y-183914285D01*
X132404761Y-183866666D01*
X132452380Y-183771428D01*
X132452380Y-183580952D01*
X132404761Y-183485714D01*
X132357142Y-183438095D01*
X132261904Y-183390476D01*
X131452380Y-183390476D01*
X131547619Y-182961904D02*
X131500000Y-182914285D01*
X131452380Y-182819047D01*
X131452380Y-182580952D01*
X131500000Y-182485714D01*
X131547619Y-182438095D01*
X131642857Y-182390476D01*
X131738095Y-182390476D01*
X131880952Y-182438095D01*
X132452380Y-183009523D01*
X132452380Y-182390476D01*
X140032712Y-167310208D02*
X140605132Y-167882628D01*
X140706147Y-167916300D01*
X140773491Y-167916300D01*
X140874506Y-167882628D01*
X141009193Y-167747941D01*
X141042865Y-167646926D01*
X141042865Y-167579582D01*
X141009193Y-167478567D01*
X140436773Y-166906147D01*
X141850987Y-166906147D02*
X141446926Y-167310208D01*
X141648956Y-167108178D02*
X140941850Y-166401071D01*
X140975521Y-166569430D01*
X140975521Y-166704117D01*
X140941850Y-166805132D01*
X146235447Y-167599035D02*
X146302790Y-167733722D01*
X146471149Y-167902081D01*
X146572164Y-167935753D01*
X146639508Y-167935753D01*
X146740523Y-167902081D01*
X146807866Y-167834738D01*
X146841538Y-167733722D01*
X146841538Y-167666379D01*
X146807866Y-167565364D01*
X146706851Y-167397005D01*
X146673179Y-167295990D01*
X146673179Y-167228646D01*
X146706851Y-167127631D01*
X146774195Y-167060287D01*
X146875210Y-167026616D01*
X146942553Y-167026616D01*
X147043569Y-167060287D01*
X147211927Y-167228646D01*
X147279271Y-167363333D01*
X147548645Y-167565364D02*
X147009897Y-168440829D01*
X147649660Y-168070440D01*
X147279271Y-168710203D01*
X148154736Y-168171455D01*
X148356767Y-168373486D02*
X148794500Y-168811218D01*
X148289423Y-168844890D01*
X148390439Y-168945905D01*
X148424110Y-169046921D01*
X148424110Y-169114264D01*
X148390439Y-169215279D01*
X148222080Y-169383638D01*
X148121065Y-169417310D01*
X148053721Y-169417310D01*
X147952706Y-169383638D01*
X147750675Y-169181608D01*
X147717004Y-169080592D01*
X147717004Y-169013249D01*
X66727462Y-168636125D02*
X66862149Y-168568782D01*
X67030508Y-168400423D01*
X67064180Y-168299408D01*
X67064180Y-168232064D01*
X67030508Y-168131049D01*
X66963165Y-168063706D01*
X66862149Y-168030034D01*
X66794806Y-168030034D01*
X66693791Y-168063706D01*
X66525432Y-168164721D01*
X66424417Y-168198393D01*
X66357073Y-168198393D01*
X66256058Y-168164721D01*
X66188714Y-168097377D01*
X66155043Y-167996362D01*
X66155043Y-167929019D01*
X66188714Y-167828003D01*
X66357073Y-167659645D01*
X66491760Y-167592301D01*
X66693791Y-167322927D02*
X67569256Y-167861675D01*
X67198867Y-167221912D01*
X67838630Y-167592301D01*
X67299882Y-166716836D01*
X67602928Y-166548477D02*
X67602928Y-166481133D01*
X67636600Y-166380118D01*
X67804958Y-166211759D01*
X67905974Y-166178088D01*
X67973317Y-166178088D01*
X68074332Y-166211759D01*
X68141676Y-166279103D01*
X68209019Y-166413790D01*
X68209019Y-167221912D01*
X68646752Y-166784179D01*
X58904761Y-186783333D02*
X58952380Y-186640476D01*
X58952380Y-186402380D01*
X58904761Y-186307142D01*
X58857142Y-186259523D01*
X58761904Y-186211904D01*
X58666666Y-186211904D01*
X58571428Y-186259523D01*
X58523809Y-186307142D01*
X58476190Y-186402380D01*
X58428571Y-186592857D01*
X58380952Y-186688095D01*
X58333333Y-186735714D01*
X58238095Y-186783333D01*
X58142857Y-186783333D01*
X58047619Y-186735714D01*
X58000000Y-186688095D01*
X57952380Y-186592857D01*
X57952380Y-186354761D01*
X58000000Y-186211904D01*
X57952380Y-185878571D02*
X58952380Y-185640476D01*
X58238095Y-185450000D01*
X58952380Y-185259523D01*
X57952380Y-185021428D01*
X58952380Y-184116666D02*
X58952380Y-184688095D01*
X58952380Y-184402380D02*
X57952380Y-184402380D01*
X58095238Y-184497619D01*
X58190476Y-184592857D01*
X58238095Y-184688095D01*
X128082380Y-190956666D02*
X127606190Y-191290000D01*
X128082380Y-191528095D02*
X127082380Y-191528095D01*
X127082380Y-191147142D01*
X127130000Y-191051904D01*
X127177619Y-191004285D01*
X127272857Y-190956666D01*
X127415714Y-190956666D01*
X127510952Y-191004285D01*
X127558571Y-191051904D01*
X127606190Y-191147142D01*
X127606190Y-191528095D01*
X127082380Y-190623333D02*
X127082380Y-190004285D01*
X127463333Y-190337619D01*
X127463333Y-190194761D01*
X127510952Y-190099523D01*
X127558571Y-190051904D01*
X127653809Y-190004285D01*
X127891904Y-190004285D01*
X127987142Y-190051904D01*
X128034761Y-190099523D01*
X128082380Y-190194761D01*
X128082380Y-190480476D01*
X128034761Y-190575714D01*
X127987142Y-190623333D01*
X86423333Y-162022380D02*
X86090000Y-161546190D01*
X85851904Y-162022380D02*
X85851904Y-161022380D01*
X86232857Y-161022380D01*
X86328095Y-161070000D01*
X86375714Y-161117619D01*
X86423333Y-161212857D01*
X86423333Y-161355714D01*
X86375714Y-161450952D01*
X86328095Y-161498571D01*
X86232857Y-161546190D01*
X85851904Y-161546190D01*
X86804285Y-161117619D02*
X86851904Y-161070000D01*
X86947142Y-161022380D01*
X87185238Y-161022380D01*
X87280476Y-161070000D01*
X87328095Y-161117619D01*
X87375714Y-161212857D01*
X87375714Y-161308095D01*
X87328095Y-161450952D01*
X86756666Y-162022380D01*
X87375714Y-162022380D01*
X73322380Y-177176666D02*
X72846190Y-177510000D01*
X73322380Y-177748095D02*
X72322380Y-177748095D01*
X72322380Y-177367142D01*
X72370000Y-177271904D01*
X72417619Y-177224285D01*
X72512857Y-177176666D01*
X72655714Y-177176666D01*
X72750952Y-177224285D01*
X72798571Y-177271904D01*
X72846190Y-177367142D01*
X72846190Y-177748095D01*
X73322380Y-176224285D02*
X73322380Y-176795714D01*
X73322380Y-176510000D02*
X72322380Y-176510000D01*
X72465238Y-176605238D01*
X72560476Y-176700476D01*
X72608095Y-176795714D01*
X129666666Y-215982380D02*
X129666666Y-216696666D01*
X129619047Y-216839523D01*
X129523809Y-216934761D01*
X129380952Y-216982380D01*
X129285714Y-216982380D01*
X130571428Y-216315714D02*
X130571428Y-216982380D01*
X130333333Y-215934761D02*
X130095238Y-216649047D01*
X130714285Y-216649047D01*
X76952380Y-192033333D02*
X77666666Y-192033333D01*
X77809523Y-192080952D01*
X77904761Y-192176190D01*
X77952380Y-192319047D01*
X77952380Y-192414285D01*
X76952380Y-191652380D02*
X76952380Y-191033333D01*
X77333333Y-191366666D01*
X77333333Y-191223809D01*
X77380952Y-191128571D01*
X77428571Y-191080952D01*
X77523809Y-191033333D01*
X77761904Y-191033333D01*
X77857142Y-191080952D01*
X77904761Y-191128571D01*
X77952380Y-191223809D01*
X77952380Y-191509523D01*
X77904761Y-191604761D01*
X77857142Y-191652380D01*
X81607142Y-198771428D02*
X81607142Y-197628571D01*
X81607142Y-185771428D02*
X81607142Y-184628571D01*
X82178571Y-185200000D02*
X81035714Y-185200000D01*
X144206666Y-214072380D02*
X144206666Y-214786666D01*
X144159047Y-214929523D01*
X144063809Y-215024761D01*
X143920952Y-215072380D01*
X143825714Y-215072380D01*
X144635238Y-214167619D02*
X144682857Y-214120000D01*
X144778095Y-214072380D01*
X145016190Y-214072380D01*
X145111428Y-214120000D01*
X145159047Y-214167619D01*
X145206666Y-214262857D01*
X145206666Y-214358095D01*
X145159047Y-214500952D01*
X144587619Y-215072380D01*
X145206666Y-215072380D01*
X69206666Y-214072380D02*
X69206666Y-214786666D01*
X69159047Y-214929523D01*
X69063809Y-215024761D01*
X68920952Y-215072380D01*
X68825714Y-215072380D01*
X70206666Y-215072380D02*
X69635238Y-215072380D01*
X69920952Y-215072380D02*
X69920952Y-214072380D01*
X69825714Y-214215238D01*
X69730476Y-214310476D01*
X69635238Y-214358095D01*
X128991904Y-155612380D02*
X128991904Y-154612380D01*
X129230000Y-154612380D01*
X129372857Y-154660000D01*
X129468095Y-154755238D01*
X129515714Y-154850476D01*
X129563333Y-155040952D01*
X129563333Y-155183809D01*
X129515714Y-155374285D01*
X129468095Y-155469523D01*
X129372857Y-155564761D01*
X129230000Y-155612380D01*
X128991904Y-155612380D01*
X129944285Y-154707619D02*
X129991904Y-154660000D01*
X130087142Y-154612380D01*
X130325238Y-154612380D01*
X130420476Y-154660000D01*
X130468095Y-154707619D01*
X130515714Y-154802857D01*
X130515714Y-154898095D01*
X130468095Y-155040952D01*
X129896666Y-155612380D01*
X130515714Y-155612380D01*
X83591904Y-155612380D02*
X83591904Y-154612380D01*
X83830000Y-154612380D01*
X83972857Y-154660000D01*
X84068095Y-154755238D01*
X84115714Y-154850476D01*
X84163333Y-155040952D01*
X84163333Y-155183809D01*
X84115714Y-155374285D01*
X84068095Y-155469523D01*
X83972857Y-155564761D01*
X83830000Y-155612380D01*
X83591904Y-155612380D01*
X85115714Y-155612380D02*
X84544285Y-155612380D01*
X84830000Y-155612380D02*
X84830000Y-154612380D01*
X84734761Y-154755238D01*
X84639523Y-154850476D01*
X84544285Y-154898095D01*
M02*
